# xmcd
# 
# Track frame offsets:
#     187
#     19155
#     36600
#     57832
#     77652
#     94822
#     113772
#     133462
#     155792
#     171810
# 
# Disc length: 2536
# 
# Revision: 2
# Processed by: cddbd v1.5.2PL0 Copyright (c) Steve Scherf et al.
# Submitted via: fre:ac v1.0.17
# 
DISCID=8909e60a
DTITLE=Thomas Hardin Trio - Jazzで聴くBeethoven
DYEAR=1996
DGENRE=Jazz
TTITLE0=田園*交響曲第6番ヘ長調
TTITLE1=運命*交響曲第5番ハ短調
TTITLE2=月光*ピアノ・ソナタ第14番嬰ハ短調
TTITLE3=メヌエット・ト長調
TTITLE4=エリーゼのために
TTITLE5=トルコ行進曲
TTITLE6=悲愴*ピアノ・ソナタ第8番ハ短調
TTITLE7=ロマンス第1番
TTITLE8=スプリング・ソナタ*バイオリン・ソナタ第5番
TTITLE9=歓びの歌*交響曲第9番
EXTD=
EXTT0=
EXTT1=
EXTT2=
EXTT3=
EXTT4=
EXTT5=
EXTT6=
EXTT7=
EXTT8=
EXTT9=
PLAYORDER=
